<svg width="40" height="40" viewBox="0 0 40 40" fill="none" xmlns="http://www.w3.org/2000/svg">
<path d="M19.9997 37.9167C10.1163 37.9167 2.08301 29.8834 2.08301 20C2.08301 10.1167 10.1163 2.08337 19.9997 2.08337C29.883 2.08337 37.9163 10.1167 37.9163 20C37.9163 29.8834 29.883 37.9167 19.9997 37.9167ZM19.9997 4.58337C11.4997 4.58337 4.58301 11.5 4.58301 20C4.58301 28.5 11.4997 35.4167 19.9997 35.4167C28.4997 35.4167 35.4163 28.5 35.4163 20C35.4163 11.5 28.4997 4.58337 19.9997 4.58337Z" fill="#667085"/>
<path d="M15.2829 25.9666C14.9663 25.9666 14.6496 25.85 14.3996 25.6C13.9163 25.1166 13.9163 24.3166 14.3996 23.8333L23.8329 14.4C24.3163 13.9166 25.1163 13.9166 25.5996 14.4C26.0829 14.8833 26.0829 15.6833 25.5996 16.1666L16.1663 25.6C15.9329 25.85 15.5996 25.9666 15.2829 25.9666Z" fill="#667085"/>
<path d="M24.7163 25.9666C24.3996 25.9666 24.0829 25.85 23.8329 25.6L14.3996 16.1666C13.9163 15.6833 13.9163 14.8833 14.3996 14.4C14.8829 13.9166 15.6829 13.9166 16.1663 14.4L25.5996 23.8333C26.0829 24.3166 26.0829 25.1166 25.5996 25.6C25.3496 25.85 25.0329 25.9666 24.7163 25.9666Z" fill="#667085"/>
</svg>
