<svg width="28" height="28" viewBox="0 0 28 28" fill="none" xmlns="http://www.w3.org/2000/svg">
<path d="M24.7916 10.675C22.0966 6.44004 18.1533 4.00171 13.9999 4.00171C11.9233 4.00171 9.90492 4.60838 8.06158 5.74004C6.21825 6.88338 4.56159 8.55171 3.20825 10.675C2.04159 12.5067 2.04159 15.4817 3.20825 17.3134C5.90325 21.56 9.84659 23.9867 13.9999 23.9867C16.0766 23.9867 18.0949 23.38 19.9383 22.2484C21.7816 21.105 23.4383 19.4367 24.7916 17.3134C25.9583 15.4934 25.9583 12.5067 24.7916 10.675ZM13.9999 18.7134C11.3866 18.7134 9.28659 16.6017 9.28659 14C9.28659 11.3984 11.3866 9.28671 13.9999 9.28671C16.6133 9.28671 18.7133 11.3984 18.7133 14C18.7133 16.6017 16.6133 18.7134 13.9999 18.7134Z" fill="#022512"/>
<path d="M14 10.6633C12.1684 10.6633 10.675 12.1567 10.675 14C10.675 15.8317 12.1684 17.325 14 17.325C15.8317 17.325 17.3367 15.8317 17.3367 14C17.3367 12.1683 15.8317 10.6633 14 10.6633Z" fill="#022512"/>
</svg>
