<svg width="20" height="20" viewBox="0 0 20 20" fill="none" xmlns="http://www.w3.org/2000/svg">
<path d="M5.85848 0.0699383C4.79447 0.120139 4.06786 0.289941 3.43265 0.539543C2.77524 0.795746 2.21804 1.13955 1.66363 1.69595C1.10923 2.25236 0.767824 2.80997 0.513421 3.46837C0.267219 4.10498 0.100417 4.83219 0.0534168 5.8968C0.00641629 6.96141 -0.00398383 7.30361 0.00121623 10.0192C0.00641628 12.7349 0.0184164 13.0753 0.0700169 14.1421C0.120817 15.2059 0.290019 15.9323 0.539622 16.5677C0.796224 17.2251 1.13963 17.7821 1.69623 18.3367C2.25284 18.8913 2.81004 19.2319 3.47005 19.4867C4.10606 19.7325 4.83347 19.9001 5.89788 19.9467C6.96229 19.9933 7.30489 20.0041 10.0197 19.9989C12.7345 19.9937 13.0763 19.9817 14.143 19.9311C15.2096 19.8805 15.9322 19.7101 16.5678 19.4617C17.2252 19.2045 17.7826 18.8617 18.3368 18.3049C18.891 17.7481 19.2322 17.1901 19.4864 16.5313C19.7328 15.8953 19.9002 15.1679 19.9464 14.1043C19.993 13.0369 20.004 12.6961 19.9988 9.98084C19.9936 7.26561 19.9814 6.92521 19.9308 5.8588C19.8802 4.79239 19.7108 4.06818 19.4614 3.43237C19.2044 2.77497 18.8614 2.21836 18.305 1.66335C17.7486 1.10835 17.1902 0.767345 16.5316 0.513743C15.8952 0.26754 15.1682 0.0997386 14.1038 0.0537382C13.0393 0.00773769 12.6967 -0.00406243 9.98092 0.00113762C7.26509 0.00633768 6.92509 0.0179378 5.85848 0.0699383ZM5.97528 18.1477C5.00027 18.1053 4.47086 17.9433 4.11806 17.8077C3.65085 17.6277 3.31805 17.4101 2.96645 17.0619C2.61484 16.7137 2.39884 16.3797 2.21644 15.9135C2.07944 15.5607 1.91444 15.0319 1.86884 14.0569C1.81923 13.0031 1.80883 12.6867 1.80303 10.0168C1.79723 7.34701 1.80743 7.03101 1.85363 5.9768C1.89524 5.00259 2.05824 4.47258 2.19364 4.11998C2.37364 3.65217 2.59044 3.31997 2.93945 2.96857C3.28845 2.61716 3.62145 2.40076 4.08806 2.21836C4.44046 2.08076 4.96927 1.91716 5.94388 1.87076C6.99849 1.82076 7.31449 1.81076 9.98392 1.80496C12.6533 1.79916 12.9701 1.80916 14.0252 1.85556C14.9994 1.89796 15.5296 2.05936 15.8818 2.19556C16.3492 2.37556 16.6818 2.59176 17.0332 2.94137C17.3846 3.29097 17.6012 3.62277 17.7836 4.09038C17.9214 4.44178 18.085 4.97039 18.131 5.9456C18.1812 7.00021 18.1926 7.31641 18.1974 9.98564C18.2022 12.6549 18.1928 12.9719 18.1466 14.0257C18.104 15.0007 17.9424 15.5303 17.8066 15.8835C17.6266 16.3505 17.4096 16.6835 17.0604 17.0347C16.7112 17.3859 16.3786 17.6023 15.9118 17.7847C15.5598 17.9221 15.0304 18.0861 14.0566 18.1325C13.0019 18.1821 12.6859 18.1925 10.0155 18.1983C7.34509 18.2041 7.03009 18.1933 5.97548 18.1477M14.1276 4.65539C14.128 4.89274 14.1987 5.12465 14.3309 5.32178C14.4631 5.51891 14.6508 5.6724 14.8703 5.76285C15.0897 5.8533 15.3311 5.87664 15.5638 5.82992C15.7965 5.78319 16.0101 5.66851 16.1777 5.50036C16.3452 5.33222 16.4591 5.11817 16.505 4.88529C16.5508 4.6524 16.5266 4.41115 16.4354 4.19203C16.3441 3.97292 16.1899 3.78579 15.9923 3.65431C15.7947 3.52282 15.5625 3.4529 15.3252 3.45337C15.007 3.45401 14.7021 3.58099 14.4775 3.8064C14.2529 4.03181 14.127 4.33719 14.1276 4.65539ZM4.86547 10.01C4.87107 12.8461 7.17429 15.1399 10.0097 15.1345C12.8451 15.1291 15.1406 12.8261 15.1352 9.99004C15.1298 7.15401 12.8259 4.85959 9.99012 4.86519C7.15429 4.87079 4.86007 7.17441 4.86547 10.01ZM6.66668 10.0064C6.66538 9.34715 6.85961 8.70228 7.2248 8.15338C7.59 7.60447 8.10976 7.17619 8.71837 6.92268C9.32697 6.66918 9.99708 6.60184 10.644 6.72918C11.2908 6.85652 11.8854 7.17282 12.3525 7.63809C12.8196 8.10335 13.1383 8.69668 13.2682 9.34305C13.3981 9.98942 13.3334 10.6598 13.0823 11.2694C12.8312 11.879 12.405 12.4005 11.8576 12.7678C11.3101 13.1352 10.666 13.332 10.0067 13.3333C9.56895 13.3342 9.13529 13.2489 8.7305 13.0822C8.32572 12.9155 7.95773 12.6707 7.64757 12.3617C7.33741 12.0528 7.09115 11.6858 6.92284 11.2816C6.75454 10.8775 6.6675 10.4442 6.66668 10.0064Z" fill="white"/>
</svg>
