<svg width="80" height="80" viewBox="0 0 80 80" fill="none" xmlns="http://www.w3.org/2000/svg">
<ellipse opacity="0.1" cx="40" cy="77.6002" rx="40" ry="2.4" fill="#09002E"/>
<path fill-rule="evenodd" clip-rule="evenodd" d="M62.1236 13.2757C62.1414 12.1118 63.0994 11.1827 64.2633 11.2004C65.4272 11.2182 66.3563 12.1762 66.3385 13.3401L66.2722 17.6755C66.2544 18.8394 65.2965 19.7685 64.1326 19.7507C62.9687 19.7329 62.0396 18.7749 62.0574 17.611L62.1236 13.2757ZM64.2388 12.8003C63.9585 12.796 63.7277 13.0198 63.7234 13.3001L63.6572 17.6355C63.6529 17.9158 63.8767 18.1466 64.157 18.1509C64.4374 18.1551 64.6681 17.9313 64.6724 17.651L64.7387 13.3156C64.7429 13.0353 64.5192 12.8045 64.2388 12.8003ZM66.5767 22.0327C66.5945 20.8688 67.5525 19.9397 68.7164 19.9575L73.0517 20.0238C74.2156 20.0416 75.1447 20.9995 75.1269 22.1634C75.1092 23.3273 74.1512 24.2564 72.9873 24.2386L68.652 24.1724C67.4881 24.1546 66.559 23.1966 66.5767 22.0327ZM68.6919 21.5573C68.4116 21.553 68.1808 21.7768 68.1766 22.0572C68.1723 22.3375 68.3961 22.5683 68.6764 22.5725L73.0118 22.6388C73.2921 22.6431 73.5229 22.4193 73.5271 22.139C73.5314 21.8586 73.3076 21.6279 73.0273 21.6236L68.6919 21.5573ZM17.7565 25.411C18.3916 22.934 20.6239 21.2019 23.181 21.2019H59.2188C61.7759 21.2019 64.0082 22.934 64.6433 25.411L68.5309 40.5726C68.7187 41.305 68.7562 42.0678 68.6412 42.8151L66.3828 57.495C65.9625 60.2269 63.6119 62.2435 60.8479 62.2435H27.1686C25.4968 66.3261 21.4841 69.202 16.7996 69.202C10.614 69.202 5.59961 64.1876 5.59961 58.002C5.59961 52.6501 9.35332 48.175 14.3715 47.0659L13.7474 42.7911C13.6403 42.0573 13.68 41.3095 13.8642 40.5912L17.7565 25.411ZM15.9546 46.8333C16.2335 46.8125 16.5153 46.8019 16.7996 46.8019C22.9852 46.8019 27.9996 51.8164 27.9996 58.002C27.9996 58.9119 27.8911 59.7965 27.6863 60.6435H60.8479C62.8222 60.6435 64.5012 59.2031 64.8014 57.2517L67.0598 42.5718L67.0645 42.5408L67.0671 42.5222H55.1375L51.756 47.2564C50.7048 48.7281 49.0076 49.6015 47.199 49.6015H35.7054C33.8969 49.6015 32.1997 48.7281 31.1485 47.2564L27.767 42.5222H15.3253L15.3306 42.56L15.9546 46.8333ZM63.0934 25.8084L66.9688 40.9222H61.72V40.4171V40.3715V36.16V35.3152V30.2581C61.72 28.049 59.9291 26.2581 57.72 26.2581H24.6785C22.4694 26.2581 20.6785 28.049 20.6785 30.2581V35.3152V36.16V40.3715V40.4171V40.9222H15.431L19.3064 25.8084C19.76 24.0391 21.3545 22.8019 23.181 22.8019H59.2188C61.0453 22.8019 62.6398 24.0391 63.0934 25.8084ZM60.12 32.1149C59.4515 31.6127 58.6205 31.3152 57.72 31.3152H24.6785C23.778 31.3152 22.947 31.6127 22.2785 32.1149V30.2581C22.2785 28.9327 23.353 27.8581 24.6785 27.8581H57.72C59.0455 27.8581 60.12 28.9327 60.12 30.2581V32.1149ZM22.2785 40.9222H28.1787C28.437 40.9222 28.6795 41.047 28.8296 41.2572L32.4505 46.3265C33.2013 47.3776 34.4136 48.0015 35.7054 48.0015H47.199C48.4909 48.0015 49.7031 47.3776 50.454 46.3265L54.0748 41.2572C54.225 41.047 54.4674 40.9222 54.7258 40.9222H60.12V40.4929L59.9591 39.6509C59.9387 39.5441 59.9141 39.439 59.8856 39.3357C59.4989 38.5287 58.6745 37.9714 57.72 37.9714H24.6785C23.5743 37.9714 22.6442 38.7172 22.3645 39.7325C22.3512 39.8114 22.3401 39.8911 22.3314 39.9716L22.2785 40.4603V40.9222ZM7.19961 58.002C7.19961 52.7 11.4977 48.402 16.7996 48.402C22.1015 48.402 26.3996 52.7 26.3996 58.002C26.3996 63.3039 22.1015 67.602 16.7996 67.602C11.4977 67.602 7.19961 63.3039 7.19961 58.002ZM14.7996 52.802C14.7996 51.6974 15.695 50.802 16.7996 50.802C17.9042 50.802 18.7996 51.6974 18.7996 52.802V57.602C18.7996 58.7066 17.9042 59.602 16.7996 59.602C15.695 59.602 14.7996 58.7066 14.7996 57.602V52.802ZM16.7996 52.402C16.5787 52.402 16.3996 52.5811 16.3996 52.802V57.602C16.3996 57.8229 16.5787 58.002 16.7996 58.002C17.0205 58.002 17.1996 57.8229 17.1996 57.602V52.802C17.1996 52.5811 17.0205 52.402 16.7996 52.402ZM16.7996 65.202C15.695 65.202 14.7996 64.3066 14.7996 63.202C14.7996 62.0974 15.695 61.202 16.7996 61.202C17.9042 61.202 18.7996 62.0974 18.7996 63.202C18.7996 64.3066 17.9042 65.202 16.7996 65.202ZM16.3996 63.202C16.3996 63.4229 16.5787 63.602 16.7996 63.602C17.0205 63.602 17.1996 63.4229 17.1996 63.202C17.1996 62.9811 17.0205 62.802 16.7996 62.802C16.5787 62.802 16.3996 62.9811 16.3996 63.202Z" fill="#09002E"/>
</svg>
