<svg width="40" height="40" viewBox="0 0 40 40" fill="none" xmlns="http://www.w3.org/2000/svg">
<path d="M25.9048 7.93328H32.0938V14.1436C32.8466 14.2158 33.7303 13.9443 34.391 14.366L40 20.0116L34.3248 25.8406H32.0938V32.1953H25.9048V34.2894L20.0756 40L14.7544 34.792C14.6263 34.6664 14.1024 34.3342 14.1024 34.2909V32.1967H7.91335V25.842H5.61045C5.58598 25.842 5.56727 25.5748 5.40463 25.4058C3.62851 23.5774 1.77324 21.8241 0 19.9928L5.82635 14.1436H7.91335V7.93328H14.1024C14.1744 7.17793 13.9038 6.29116 14.3241 5.62825L19.9518 0L25.6831 5.62825C26.1049 6.28972 25.8328 7.17793 25.9048 7.93328ZM22.0186 10.0997C21.8949 9.05546 22.0935 8.39688 22.7282 7.59243L19.9518 4.91046L17.279 7.59243C17.8576 8.34922 18.1498 9.12623 18.1325 10.0997H12.7351C11.9852 10.0997 10.8596 11.1092 10.4984 11.7548C10.4235 11.8876 10.0723 12.7152 10.0723 12.7715V18.043C9.0792 18.1542 8.34659 17.9376 7.57367 17.331L4.90231 20.013L7.57511 22.799C8.17819 22.4032 8.8158 21.9512 9.5772 21.9367C9.94567 21.9295 10.3026 22.0913 10.7143 22.0927C13.1453 22.1072 15.559 21.879 17.99 21.9411V18.0416H13.9599V14.2143L14.1758 13.9977H27.5614C27.7514 13.9977 28.6654 13.446 28.8554 13.2741C29.7305 12.487 30.0011 11.2305 29.9363 10.0982H22.0201L22.0186 10.0997ZM29.9349 21.9425C30.9093 21.866 31.6808 22.2487 32.4335 22.799L35.1063 20.117L32.435 17.331C32.2867 17.305 31.5268 18.043 31.1597 18.043H22.0201V21.9425H25.8343L26.0502 22.1592V25.9864H22.0201V29.8859C23.1471 29.9003 24.2798 29.8686 25.4082 29.8801C26.7094 29.8931 27.37 30.2946 28.628 29.3674C29.0756 29.0367 29.9363 27.8856 29.9363 27.3585V21.9425H29.9349ZM17.9886 25.9864H13.0229C12.9279 25.9864 12.1838 26.2233 12.0298 26.2897C10.579 26.9064 10.0306 28.3882 10.0723 29.8859H17.9886V25.9864ZM22.0201 30.0289H18.1339C18.144 31.0052 17.8605 31.7793 17.279 32.5376L19.9518 35.2195L22.7282 32.539C22.1237 31.762 21.9078 31.0269 22.0186 30.0303L22.0201 30.0289Z" fill="black"/>
</svg>
