<svg width="139" height="40" viewBox="0 0 139 40" fill="none" xmlns="http://www.w3.org/2000/svg">
<g clip-path="url(#clip0_977_5904)">
<path d="M33.5726 18.2521L32.896 18.9371C32.3264 19.5137 31.4029 19.5137 30.8334 18.9371L18.0319 5.978C17.4623 5.40141 16.5389 5.40141 15.9693 5.978L3.16615 18.9371C2.59657 19.5137 1.67312 19.5137 1.10353 18.9371L0.426943 18.2521C-0.14264 17.6755 -0.14264 16.7407 0.426943 16.1641L15.9699 0.432141C16.5394 -0.144454 17.4629 -0.144454 18.0325 0.432141L33.5731 16.1641C34.1427 16.7407 34.1427 17.6755 33.5731 18.2521H33.5726Z" fill="#F0C71D"/>
<path d="M21.0462 23.8502C21.0462 21.5868 19.235 19.7533 16.9991 19.7533C14.7632 19.7533 12.952 21.5868 12.952 23.8502C12.952 25.4803 13.893 26.8874 15.2547 27.5471C15.766 27.7947 16.0966 28.3111 16.0966 28.8848V38.5207C16.0966 39.8361 14.5254 40.4946 13.6071 39.5644L0.427431 26.2225C-0.142152 25.6459 -0.142152 24.7111 0.427431 24.1345L15.9675 8.40077C16.5371 7.82417 17.4606 7.82417 18.0301 8.40077L33.5725 24.1345C34.1421 24.7111 34.1421 25.6459 33.5725 26.2225L20.3906 39.565C19.4716 40.4952 17.901 39.8361 17.901 38.5207V28.8848C17.901 28.3111 18.2317 27.7941 18.7435 27.5471C20.1063 26.8879 21.0462 25.4803 21.0462 23.8502Z" fill="#02635A"/>
</g>
<path d="M45.0114 18V6.36364H49.6023C50.4811 6.36364 51.2311 6.52083 51.8523 6.83523C52.4773 7.14583 52.9527 7.58712 53.2784 8.15909C53.608 8.72727 53.7727 9.39583 53.7727 10.1648C53.7727 10.9375 53.6061 11.6023 53.2727 12.1591C52.9394 12.7121 52.4564 13.1364 51.8239 13.4318C51.1951 13.7273 50.4337 13.875 49.5398 13.875H46.4659V11.8977H49.142C49.6117 11.8977 50.0019 11.8333 50.3125 11.7045C50.6231 11.5758 50.8542 11.3826 51.0057 11.125C51.161 10.8674 51.2386 10.5473 51.2386 10.1648C51.2386 9.77841 51.161 9.45265 51.0057 9.1875C50.8542 8.92235 50.6212 8.72159 50.3068 8.58523C49.9962 8.44508 49.6042 8.375 49.1307 8.375H47.4716V18H45.0114ZM51.2955 12.7045L54.1875 18H51.4716L48.642 12.7045H51.2955ZM61.0625 14.2841V9.27273H63.483V18H61.1591V16.4148H61.0682C60.8712 16.9261 60.5436 17.3371 60.0852 17.6477C59.6307 17.9583 59.0758 18.1136 58.4205 18.1136C57.8371 18.1136 57.3239 17.9811 56.8807 17.7159C56.4375 17.4508 56.0909 17.0739 55.8409 16.5852C55.5947 16.0966 55.4697 15.5114 55.4659 14.8295V9.27273H57.8864V14.3977C57.8902 14.9129 58.0284 15.3201 58.3011 15.6193C58.5739 15.9186 58.9394 16.0682 59.3977 16.0682C59.6894 16.0682 59.9621 16.0019 60.2159 15.8693C60.4697 15.733 60.6742 15.5322 60.8295 15.267C60.9886 15.0019 61.0663 14.6742 61.0625 14.2841ZM65.419 18V9.27273H67.7259V10.8125H67.8281C68.0099 10.3011 68.313 9.89773 68.7372 9.60227C69.1615 9.30682 69.669 9.15909 70.2599 9.15909C70.8584 9.15909 71.3679 9.30871 71.7884 9.60795C72.2088 9.90341 72.4891 10.3049 72.6293 10.8125H72.7202C72.8982 10.3125 73.2202 9.91288 73.6861 9.61364C74.1558 9.31061 74.7107 9.15909 75.3509 9.15909C76.1652 9.15909 76.8262 9.41856 77.3338 9.9375C77.8452 10.4527 78.1009 11.1837 78.1009 12.1307V18H75.6861V12.608C75.6861 12.1231 75.5573 11.7595 75.2997 11.517C75.0421 11.2746 74.7202 11.1534 74.3338 11.1534C73.8944 11.1534 73.5516 11.2936 73.3054 11.5739C73.0592 11.8504 72.9361 12.2159 72.9361 12.6705V18H70.5895V12.5568C70.5895 12.1288 70.4664 11.7879 70.2202 11.5341C69.9777 11.2803 69.6577 11.1534 69.2599 11.1534C68.991 11.1534 68.7486 11.2216 68.5327 11.358C68.3205 11.4905 68.152 11.678 68.027 11.9205C67.902 12.1591 67.8395 12.4394 67.8395 12.7614V18H65.419ZM82.5014 18.1648C81.9446 18.1648 81.4484 18.0682 81.0128 17.875C80.5772 17.678 80.2325 17.3883 79.9787 17.0057C79.7287 16.6193 79.6037 16.1383 79.6037 15.5625C79.6037 15.0777 79.6927 14.6705 79.8707 14.3409C80.0488 14.0114 80.2912 13.7462 80.598 13.5455C80.9048 13.3447 81.2533 13.1932 81.6435 13.0909C82.0374 12.9886 82.4503 12.9167 82.8821 12.875C83.3897 12.822 83.7988 12.7727 84.1094 12.7273C84.42 12.678 84.6454 12.6061 84.7855 12.5114C84.9257 12.4167 84.9957 12.2765 84.9957 12.0909V12.0568C84.9957 11.697 84.8821 11.4186 84.6548 11.2216C84.4313 11.0246 84.1132 10.9261 83.7003 10.9261C83.2647 10.9261 82.9181 11.0227 82.6605 11.2159C82.4029 11.4053 82.2325 11.6439 82.1491 11.9318L79.9105 11.75C80.0241 11.2197 80.2476 10.7614 80.581 10.375C80.9143 9.98485 81.3442 9.68561 81.8707 9.47727C82.401 9.26515 83.0147 9.15909 83.7116 9.15909C84.1965 9.15909 84.6605 9.21591 85.1037 9.32955C85.5507 9.44318 85.9465 9.61932 86.2912 9.85795C86.6397 10.0966 86.9143 10.4034 87.1151 10.7784C87.3158 11.1496 87.4162 11.5947 87.4162 12.1136V18H85.1207V16.7898H85.0526C84.9124 17.0625 84.7249 17.303 84.4901 17.5114C84.2552 17.7159 83.973 17.8769 83.6435 17.9943C83.3139 18.108 82.9332 18.1648 82.5014 18.1648ZM83.1946 16.4943C83.5507 16.4943 83.8651 16.4242 84.1378 16.2841C84.4105 16.1402 84.6245 15.947 84.7798 15.7045C84.9351 15.4621 85.0128 15.1875 85.0128 14.8807V13.9545C84.937 14.0038 84.8329 14.0492 84.7003 14.0909C84.5715 14.1288 84.4257 14.1648 84.2628 14.1989C84.0999 14.2292 83.937 14.2576 83.7741 14.2841C83.6113 14.3068 83.4635 14.3277 83.331 14.3466C83.0469 14.3883 82.7988 14.4545 82.5866 14.5455C82.3745 14.6364 82.2098 14.7595 82.0923 14.9148C81.9749 15.0663 81.9162 15.2557 81.9162 15.483C81.9162 15.8125 82.0355 16.0644 82.2741 16.2386C82.5166 16.4091 82.8234 16.4943 83.1946 16.4943ZM91.7145 12.9545V18H89.294V6.36364H91.6463V10.8125H91.7486C91.9455 10.2973 92.2637 9.89394 92.7031 9.60227C93.1425 9.30682 93.6937 9.15909 94.3565 9.15909C94.9626 9.15909 95.491 9.29167 95.9418 9.55682C96.3963 9.81818 96.7486 10.1951 96.9986 10.6875C97.2524 11.1761 97.3774 11.7614 97.3736 12.4432V18H94.9531V12.875C94.9569 12.3371 94.8205 11.9186 94.544 11.6193C94.2713 11.3201 93.8887 11.1705 93.3963 11.1705C93.0668 11.1705 92.7751 11.2405 92.5213 11.3807C92.2713 11.5208 92.0743 11.7254 91.9304 11.9943C91.7902 12.2595 91.7183 12.5795 91.7145 12.9545ZM107.152 18H103.027V6.36364H107.186C108.357 6.36364 109.364 6.59659 110.209 7.0625C111.054 7.52462 111.703 8.18939 112.158 9.05682C112.616 9.92424 112.845 10.9621 112.845 12.1705C112.845 13.3826 112.616 14.4242 112.158 15.2955C111.703 16.1667 111.05 16.8352 110.197 17.3011C109.349 17.767 108.334 18 107.152 18ZM105.487 15.892H107.05C107.777 15.892 108.389 15.7633 108.885 15.5057C109.385 15.2443 109.76 14.8409 110.01 14.2955C110.264 13.7462 110.391 13.0379 110.391 12.1705C110.391 11.3106 110.264 10.608 110.01 10.0625C109.76 9.51705 109.387 9.11553 108.891 8.85795C108.394 8.60038 107.783 8.47159 107.055 8.47159H105.487V15.892ZM117.111 18.1648C116.554 18.1648 116.058 18.0682 115.622 17.875C115.187 17.678 114.842 17.3883 114.588 17.0057C114.338 16.6193 114.213 16.1383 114.213 15.5625C114.213 15.0777 114.302 14.6705 114.48 14.3409C114.658 14.0114 114.901 13.7462 115.207 13.5455C115.514 13.3447 115.863 13.1932 116.253 13.0909C116.647 12.9886 117.06 12.9167 117.491 12.875C117.999 12.822 118.408 12.7727 118.719 12.7273C119.029 12.678 119.255 12.6061 119.395 12.5114C119.535 12.4167 119.605 12.2765 119.605 12.0909V12.0568C119.605 11.697 119.491 11.4186 119.264 11.2216C119.041 11.0246 118.723 10.9261 118.31 10.9261C117.874 10.9261 117.527 11.0227 117.27 11.2159C117.012 11.4053 116.842 11.6439 116.759 11.9318L114.52 11.75C114.634 11.2197 114.857 10.7614 115.19 10.375C115.524 9.98485 115.954 9.68561 116.48 9.47727C117.01 9.26515 117.624 9.15909 118.321 9.15909C118.806 9.15909 119.27 9.21591 119.713 9.32955C120.16 9.44318 120.556 9.61932 120.901 9.85795C121.249 10.0966 121.524 10.4034 121.724 10.7784C121.925 11.1496 122.026 11.5947 122.026 12.1136V18H119.73V16.7898H119.662C119.522 17.0625 119.334 17.303 119.099 17.5114C118.865 17.7159 118.582 17.8769 118.253 17.9943C117.923 18.108 117.543 18.1648 117.111 18.1648ZM117.804 16.4943C118.16 16.4943 118.474 16.4242 118.747 16.2841C119.02 16.1402 119.234 15.947 119.389 15.7045C119.545 15.4621 119.622 15.1875 119.622 14.8807V13.9545C119.546 14.0038 119.442 14.0492 119.31 14.0909C119.181 14.1288 119.035 14.1648 118.872 14.1989C118.709 14.2292 118.546 14.2576 118.384 14.2841C118.221 14.3068 118.073 14.3277 117.94 14.3466C117.656 14.3883 117.408 14.4545 117.196 14.5455C116.984 14.6364 116.819 14.7595 116.702 14.9148C116.584 15.0663 116.526 15.2557 116.526 15.483C116.526 15.8125 116.645 16.0644 116.884 16.2386C117.126 16.4091 117.433 16.4943 117.804 16.4943ZM128.545 9.27273V11.0909H123.29V9.27273H128.545ZM124.483 7.18182H126.903V15.3182C126.903 15.5417 126.938 15.7159 127.006 15.8409C127.074 15.9621 127.169 16.0473 127.29 16.0966C127.415 16.1458 127.559 16.1705 127.722 16.1705C127.835 16.1705 127.949 16.161 128.062 16.142C128.176 16.1193 128.263 16.1023 128.324 16.0909L128.705 17.892C128.583 17.9299 128.413 17.9735 128.193 18.0227C127.973 18.0758 127.706 18.108 127.392 18.1193C126.809 18.142 126.297 18.0644 125.858 17.8864C125.422 17.7083 125.083 17.4318 124.841 17.0568C124.598 16.6818 124.479 16.2083 124.483 15.6364V7.18182ZM132.611 18.1648C132.054 18.1648 131.558 18.0682 131.122 17.875C130.687 17.678 130.342 17.3883 130.088 17.0057C129.838 16.6193 129.713 16.1383 129.713 15.5625C129.713 15.0777 129.802 14.6705 129.98 14.3409C130.158 14.0114 130.401 13.7462 130.707 13.5455C131.014 13.3447 131.363 13.1932 131.753 13.0909C132.147 12.9886 132.56 12.9167 132.991 12.875C133.499 12.822 133.908 12.7727 134.219 12.7273C134.529 12.678 134.755 12.6061 134.895 12.5114C135.035 12.4167 135.105 12.2765 135.105 12.0909V12.0568C135.105 11.697 134.991 11.4186 134.764 11.2216C134.541 11.0246 134.223 10.9261 133.81 10.9261C133.374 10.9261 133.027 11.0227 132.77 11.2159C132.512 11.4053 132.342 11.6439 132.259 11.9318L130.02 11.75C130.134 11.2197 130.357 10.7614 130.69 10.375C131.024 9.98485 131.454 9.68561 131.98 9.47727C132.51 9.26515 133.124 9.15909 133.821 9.15909C134.306 9.15909 134.77 9.21591 135.213 9.32955C135.66 9.44318 136.056 9.61932 136.401 9.85795C136.749 10.0966 137.024 10.4034 137.224 10.7784C137.425 11.1496 137.526 11.5947 137.526 12.1136V18H135.23V16.7898H135.162C135.022 17.0625 134.834 17.303 134.599 17.5114C134.365 17.7159 134.082 17.8769 133.753 17.9943C133.423 18.108 133.043 18.1648 132.611 18.1648ZM133.304 16.4943C133.66 16.4943 133.974 16.4242 134.247 16.2841C134.52 16.1402 134.734 15.947 134.889 15.7045C135.045 15.4621 135.122 15.1875 135.122 14.8807V13.9545C135.046 14.0038 134.942 14.0492 134.81 14.0909C134.681 14.1288 134.535 14.1648 134.372 14.1989C134.209 14.2292 134.046 14.2576 133.884 14.2841C133.721 14.3068 133.573 14.3277 133.44 14.3466C133.156 14.3883 132.908 14.4545 132.696 14.5455C132.484 14.6364 132.319 14.7595 132.202 14.9148C132.084 15.0663 132.026 15.2557 132.026 15.483C132.026 15.8125 132.145 16.0644 132.384 16.2386C132.626 16.4091 132.933 16.4943 133.304 16.4943ZM51.3239 25.7102C51.2784 25.2519 51.0833 24.8958 50.7386 24.642C50.3939 24.3883 49.9261 24.2614 49.3352 24.2614C48.9337 24.2614 48.5947 24.3182 48.3182 24.4318C48.0417 24.5417 47.8295 24.6951 47.6818 24.892C47.5379 25.089 47.4659 25.3125 47.4659 25.5625C47.4583 25.7708 47.5019 25.9527 47.5966 26.108C47.6951 26.2633 47.8295 26.3977 48 26.5114C48.1705 26.6212 48.3674 26.7178 48.5909 26.8011C48.8144 26.8807 49.053 26.9489 49.3068 27.0057L50.3523 27.2557C50.8598 27.3693 51.3258 27.5208 51.75 27.7102C52.1742 27.8996 52.5417 28.1326 52.8523 28.4091C53.1629 28.6856 53.4034 29.0114 53.5739 29.3864C53.7481 29.7614 53.8371 30.1913 53.8409 30.6761C53.8371 31.3883 53.6553 32.0057 53.2955 32.5284C52.9394 33.0473 52.4242 33.4508 51.75 33.7386C51.0795 34.0227 50.2708 34.1648 49.3239 34.1648C48.3845 34.1648 47.5663 34.0208 46.8693 33.733C46.1761 33.4451 45.6345 33.0189 45.2443 32.4545C44.858 31.8864 44.6553 31.1837 44.6364 30.3466H47.017C47.0436 30.7367 47.1553 31.0625 47.3523 31.3239C47.553 31.5814 47.8201 31.7765 48.1534 31.9091C48.4905 32.0379 48.8712 32.1023 49.2955 32.1023C49.7121 32.1023 50.0739 32.0417 50.3807 31.9205C50.6913 31.7992 50.9318 31.6307 51.1023 31.4148C51.2727 31.1989 51.358 30.9508 51.358 30.6705C51.358 30.4091 51.2803 30.1894 51.125 30.0114C50.9735 29.8333 50.75 29.6818 50.4545 29.5568C50.1629 29.4318 49.8049 29.3182 49.3807 29.2159L48.1136 28.8977C47.1326 28.6591 46.358 28.286 45.7898 27.7784C45.2216 27.2708 44.9394 26.5871 44.9432 25.7273C44.9394 25.0227 45.1269 24.4072 45.5057 23.8807C45.8883 23.3542 46.4129 22.9432 47.0795 22.6477C47.7462 22.3523 48.5038 22.2045 49.3523 22.2045C50.2159 22.2045 50.9697 22.3523 51.6136 22.6477C52.2614 22.9432 52.7652 23.3542 53.125 23.8807C53.4848 24.4072 53.6705 25.017 53.6818 25.7102H51.3239ZM57.9389 34.1648C57.3821 34.1648 56.8859 34.0682 56.4503 33.875C56.0147 33.678 55.67 33.3883 55.4162 33.0057C55.1662 32.6193 55.0412 32.1383 55.0412 31.5625C55.0412 31.0777 55.1302 30.6705 55.3082 30.3409C55.4863 30.0114 55.7287 29.7462 56.0355 29.5455C56.3423 29.3447 56.6908 29.1932 57.081 29.0909C57.4749 28.9886 57.8878 28.9167 58.3196 28.875C58.8272 28.822 59.2363 28.7727 59.5469 28.7273C59.8575 28.678 60.0829 28.6061 60.223 28.5114C60.3632 28.4167 60.4332 28.2765 60.4332 28.0909V28.0568C60.4332 27.697 60.3196 27.4186 60.0923 27.2216C59.8688 27.0246 59.5507 26.9261 59.1378 26.9261C58.7022 26.9261 58.3556 27.0227 58.098 27.2159C57.8404 27.4053 57.67 27.6439 57.5866 27.9318L55.348 27.75C55.4616 27.2197 55.6851 26.7614 56.0185 26.375C56.3518 25.9848 56.7817 25.6856 57.3082 25.4773C57.8385 25.2652 58.4522 25.1591 59.1491 25.1591C59.634 25.1591 60.098 25.2159 60.5412 25.3295C60.9882 25.4432 61.384 25.6193 61.7287 25.858C62.0772 26.0966 62.3518 26.4034 62.5526 26.7784C62.7533 27.1496 62.8537 27.5947 62.8537 28.1136V34H60.5582V32.7898H60.4901C60.3499 33.0625 60.1624 33.303 59.9276 33.5114C59.6927 33.7159 59.4105 33.8769 59.081 33.9943C58.7514 34.108 58.3707 34.1648 57.9389 34.1648ZM58.6321 32.4943C58.9882 32.4943 59.3026 32.4242 59.5753 32.2841C59.848 32.1402 60.062 31.947 60.2173 31.7045C60.3726 31.4621 60.4503 31.1875 60.4503 30.8807V29.9545C60.3745 30.0038 60.2704 30.0492 60.1378 30.0909C60.009 30.1288 59.8632 30.1648 59.7003 30.1989C59.5374 30.2292 59.3745 30.2576 59.2116 30.2841C59.0488 30.3068 58.901 30.3277 58.7685 30.3466C58.4844 30.3883 58.2363 30.4545 58.0241 30.5455C57.812 30.6364 57.6473 30.7595 57.5298 30.9148C57.4124 31.0663 57.3537 31.2557 57.3537 31.483C57.3537 31.8125 57.473 32.0644 57.7116 32.2386C57.9541 32.4091 58.2609 32.4943 58.6321 32.4943ZM71.9929 27.7614L69.777 27.8977C69.7391 27.7083 69.6577 27.5379 69.5327 27.3864C69.4077 27.2311 69.2429 27.108 69.0384 27.017C68.8376 26.9223 68.5971 26.875 68.3168 26.875C67.9418 26.875 67.6255 26.9545 67.3679 27.1136C67.1103 27.2689 66.9815 27.4773 66.9815 27.7386C66.9815 27.947 67.0649 28.1231 67.2315 28.267C67.3982 28.411 67.6842 28.5265 68.0895 28.6136L69.669 28.9318C70.5175 29.1061 71.1501 29.3864 71.5668 29.7727C71.9834 30.1591 72.1918 30.6667 72.1918 31.2955C72.1918 31.8674 72.0232 32.3693 71.6861 32.8011C71.3527 33.233 70.8944 33.5701 70.3111 33.8125C69.7315 34.0511 69.063 34.1705 68.3054 34.1705C67.1501 34.1705 66.2296 33.9299 65.544 33.4489C64.8622 32.964 64.4626 32.3049 64.3452 31.4716L66.7259 31.3466C66.7978 31.6989 66.9721 31.9678 67.2486 32.1534C67.5251 32.3352 67.8793 32.4261 68.3111 32.4261C68.7353 32.4261 69.0762 32.3447 69.3338 32.1818C69.5952 32.0152 69.7277 31.8011 69.7315 31.5398C69.7277 31.3201 69.6349 31.1402 69.4531 31C69.2713 30.8561 68.991 30.7462 68.6122 30.6705L67.1009 30.3693C66.2486 30.1989 65.6141 29.9034 65.1974 29.483C64.7846 29.0625 64.5781 28.5265 64.5781 27.875C64.5781 27.3144 64.7296 26.8314 65.0327 26.4261C65.3395 26.0208 65.7694 25.7083 66.3224 25.4886C66.8793 25.2689 67.5308 25.1591 68.277 25.1591C69.3793 25.1591 70.2467 25.392 70.8793 25.858C71.5156 26.3239 71.8868 26.9583 71.9929 27.7614ZM78.358 25.2727V27.0909H73.1023V25.2727H78.358ZM74.2955 23.1818H76.7159V31.3182C76.7159 31.5417 76.75 31.7159 76.8182 31.8409C76.8864 31.9621 76.9811 32.0473 77.1023 32.0966C77.2273 32.1458 77.3712 32.1705 77.5341 32.1705C77.6477 32.1705 77.7614 32.161 77.875 32.142C77.9886 32.1193 78.0758 32.1023 78.1364 32.0909L78.517 33.892C78.3958 33.9299 78.2254 33.9735 78.0057 34.0227C77.786 34.0758 77.5189 34.108 77.2045 34.1193C76.6212 34.142 76.1098 34.0644 75.6705 33.8864C75.2348 33.7083 74.8958 33.4318 74.6534 33.0568C74.411 32.6818 74.2917 32.2083 74.2955 31.6364V23.1818ZM79.9347 34V25.2727H82.2812V26.7955H82.3722C82.5313 26.2538 82.7983 25.8447 83.1733 25.5682C83.5483 25.2879 83.9801 25.1477 84.4688 25.1477C84.59 25.1477 84.7206 25.1553 84.8608 25.1705C85.0009 25.1856 85.1241 25.2064 85.2301 25.233V27.3807C85.1165 27.3466 84.9593 27.3163 84.7585 27.2898C84.5578 27.2633 84.3741 27.25 84.2074 27.25C83.8513 27.25 83.5331 27.3277 83.2528 27.483C82.9763 27.6345 82.7566 27.8466 82.5938 28.1193C82.4347 28.392 82.3551 28.7064 82.3551 29.0625V34H79.9347ZM88.7202 34.1648C88.1634 34.1648 87.6671 34.0682 87.2315 33.875C86.7959 33.678 86.4512 33.3883 86.1974 33.0057C85.9474 32.6193 85.8224 32.1383 85.8224 31.5625C85.8224 31.0777 85.9115 30.6705 86.0895 30.3409C86.2675 30.0114 86.5099 29.7462 86.8168 29.5455C87.1236 29.3447 87.4721 29.1932 87.8622 29.0909C88.2562 28.9886 88.669 28.9167 89.1009 28.875C89.6084 28.822 90.0175 28.7727 90.3281 28.7273C90.6387 28.678 90.8641 28.6061 91.0043 28.5114C91.1444 28.4167 91.2145 28.2765 91.2145 28.0909V28.0568C91.2145 27.697 91.1009 27.4186 90.8736 27.2216C90.6501 27.0246 90.3319 26.9261 89.919 26.9261C89.4834 26.9261 89.1368 27.0227 88.8793 27.2159C88.6217 27.4053 88.4512 27.6439 88.3679 27.9318L86.1293 27.75C86.2429 27.2197 86.4664 26.7614 86.7997 26.375C87.133 25.9848 87.563 25.6856 88.0895 25.4773C88.6198 25.2652 89.2334 25.1591 89.9304 25.1591C90.4152 25.1591 90.8793 25.2159 91.3224 25.3295C91.7694 25.4432 92.1652 25.6193 92.5099 25.858C92.8584 26.0966 93.133 26.4034 93.3338 26.7784C93.5346 27.1496 93.6349 27.5947 93.6349 28.1136V34H91.3395V32.7898H91.2713C91.1312 33.0625 90.9437 33.303 90.7088 33.5114C90.474 33.7159 90.1918 33.8769 89.8622 33.9943C89.5327 34.108 89.152 34.1648 88.7202 34.1648ZM89.4134 32.4943C89.7694 32.4943 90.0838 32.4242 90.3565 32.2841C90.6293 32.1402 90.8433 31.947 90.9986 31.7045C91.1539 31.4621 91.2315 31.1875 91.2315 30.8807V29.9545C91.1558 30.0038 91.0516 30.0492 90.919 30.0909C90.7902 30.1288 90.6444 30.1648 90.4815 30.1989C90.3187 30.2292 90.1558 30.2576 89.9929 30.2841C89.83 30.3068 89.6823 30.3277 89.5497 30.3466C89.2656 30.3883 89.0175 30.4545 88.8054 30.5455C88.5933 30.6364 88.4285 30.7595 88.3111 30.9148C88.1937 31.0663 88.1349 31.2557 88.1349 31.483C88.1349 31.8125 88.2543 32.0644 88.4929 32.2386C88.7353 32.4091 89.0421 32.4943 89.4134 32.4943Z" fill="black"/>
<defs>
<clipPath id="clip0_977_5904">
<rect width="34" height="40" fill="white"/>
</clipPath>
</defs>
</svg>
