<svg width="28" height="28" viewBox="0 0 28 28" fill="none" xmlns="http://www.w3.org/2000/svg">
<path d="M15.3883 7H7.92159C7.61825 7 7.32659 7.01167 7.04659 7.04667C3.90825 7.315 2.33325 9.17 2.33325 12.5883V17.255C2.33325 21.9217 4.19992 22.8433 7.92159 22.8433H8.38825C8.64492 22.8433 8.98325 23.0183 9.13492 23.2167L10.5349 25.0833C11.1533 25.9117 12.1566 25.9117 12.7749 25.0833L14.1749 23.2167C14.3499 22.9833 14.6299 22.8433 14.9216 22.8433H15.3883C18.8066 22.8433 20.6616 21.28 20.9299 18.13C20.9649 17.85 20.9766 17.5583 20.9766 17.255V12.5883C20.9766 8.86667 19.1099 7 15.3883 7ZM7.58325 16.3333C6.92992 16.3333 6.41658 15.8083 6.41658 15.1667C6.41658 14.525 6.94159 14 7.58325 14C8.22492 14 8.74992 14.525 8.74992 15.1667C8.74992 15.8083 8.22492 16.3333 7.58325 16.3333ZM11.6549 16.3333C11.0016 16.3333 10.4883 15.8083 10.4883 15.1667C10.4883 14.525 11.0133 14 11.6549 14C12.2966 14 12.8216 14.525 12.8216 15.1667C12.8216 15.8083 12.3083 16.3333 11.6549 16.3333ZM15.7383 16.3333C15.0849 16.3333 14.5716 15.8083 14.5716 15.1667C14.5716 14.525 15.0966 14 15.7383 14C16.3799 14 16.9049 14.525 16.9049 15.1667C16.9049 15.8083 16.3799 16.3333 15.7383 16.3333Z" fill="#022512"/>
<path d="M25.6433 7.92171V12.5884C25.6433 14.9217 24.92 16.5084 23.4733 17.3834C23.1233 17.5934 22.715 17.3134 22.715 16.905L22.7266 12.5884C22.7266 7.92171 20.055 5.25004 15.3883 5.25004L8.28329 5.26171C7.87496 5.26171 7.59496 4.85337 7.80496 4.50337C8.67996 3.05671 10.2666 2.33337 12.5883 2.33337H20.055C23.7766 2.33337 25.6433 4.20004 25.6433 7.92171Z" fill="#022512"/>
</svg>
