<svg width="20" height="16" viewBox="0 0 20 16" fill="none" xmlns="http://www.w3.org/2000/svg">
<path d="M10 16C10 16 16.2532 15.9999 17.8135 15.5225C18.674 15.2595 19.352 14.4852 19.582 13.502C20 11.7193 20 8 20 8C20 7.99922 19.9999 4.28035 19.582 2.49805C19.3519 1.51475 18.6739 0.740343 17.8135 0.477539C16.2532 -1.71661e-05 10 0 10 0C9.99842 0 3.74671 4.48227e-05 2.18652 0.477539C1.32615 0.740343 0.648038 1.51475 0.417969 2.49805C8.87235e-05 4.28035 4.60459e-09 7.99922 0 8C0 8 4.48536e-05 11.7193 0.417969 13.502C0.648013 14.4852 1.32612 15.2595 2.18652 15.5225C3.74666 15.9999 9.99842 16 10 16ZM7.9541 4.62305L13.1816 8L7.9541 11.377V4.62305Z" fill="white"/>
</svg>
